{"title":"Nasha 2013 DVDRip x264 Hindi ESubs - ViZNU [P2PDL]","uid":8895655,"size":475970143,"categoryP":"video","categoryS":"movies","magnet":"?xt=urn:btih:cba7507b9f2928558c1abfeb125773457e10333e&amp;dn=Nasha+2013+DVDRip+x264+Hindi+ESubs+-+ViZNU+%5BP2PDL%5D&amp;tr=udp%3A%2F%2Ftracker.openbittorrent.com%3A80&amp;tr=udp%3A%2F%2Fopen.demonii.com%3A1337&amp;tr=udp%3A%2F%2Ftracker.coppersurfer.tk%3A6969&amp;tr=udp%3A%2F%2Fexodus.desync.com%3A6969","seeders":0,"leechers":1,"uploader":"ValidusVyto","files":-1,"time":1378695523,"description":"_______ Visit us at our Semi Public Bittorrent Community ________\n  &lt;a href=&quot;\nhttp://p2pdl.com&quot; rel=&quot;nofollow&quot; target=&quot;_NEW&quot;&gt;\nhttp://p2pdl.com&lt;/a&gt;  _____________________________ &lt;a href=&quot; http://p2pdl.com&quot; rel=&quot;nofollow&quot; target=&quot;_NEW&quot;&gt; http://p2pdl.com&lt;/a&gt;\n\n\n\nNasha 2013 DVDRip x264 Hindi ESubs - ViZNU\n\n\nGenre: Drama | Romance\nPlot: It is the story of an 18 year old boy who falls hopelessly in love with a 25 year\nold woman. A woman he cannot have, but a woman he cannot help but desire. And, as is the\ncase with desires ... \nDirector: Amit Saxena\nStars: Ranbir Chakma, Nikhil Desai, Raj Kesaria.\nRated: A. \n\n\nInfo: &lt;a href=&quot;\nhttp://www.imdb.com/title/tt3044882/&quot; rel=&quot;nofollow&quot; target=&quot;_NEW&quot;&gt;\nhttp://www.imdb.com/title/tt3044882/&lt;/a&gt;\n\nTrailer:\n\n\nFormat                         : MPEG-4\nFile size                      : 451 MiB\nDuration                       : 1h 57mn\nOverall bit rate               : 537 Kbps\n\nVideo\nFormat                         : AVC\nBit rate                       : 494 Kbps\nWidth                          : 704 pixels\nHeight                         : 304 pixels\nDisplay aspect ratio           : 2.35:1\nFrame rate mode                : Constant\nFrame rate                     : 25.000 fps\nBit depth                      : 10 bits\nStream size                    : 415 MiB (92%)\nWriting library                : x264 core 138 r2358\n\nAudio\nID                             : 2\nFormat                         : AAC\nBit rate mode                  : Variable\nBit rate                       : 40.0 Kbps\nChannel(s)                     : 2 channels\nChannel positions              : Front: L R\nSampling rate                  : 48.0 KHz\nStream size                    : 33.6 MiB (7%)\nLanguage                       : Hindi\n\nSubtitle                       : Yes(English)\n\nSource                         : NTSC DVD5\n &lt;a href=&quot;\nhttp://ultraimg.com/images/eYkTV.png&quot; rel=&quot;nofollow&quot; target=&quot;_NEW&quot;&gt;\nhttp://ultraimg.com/images/eYkTV.png&lt;/a&gt; &lt;a href=&quot;\nhttp://ultraimg.com/images/xmfNi.png&quot; rel=&quot;nofollow&quot; target=&quot;_NEW&quot;&gt;\nhttp://ultraimg.com/images/xmfNi.png&lt;/a&gt; &lt;a href=&quot;\nhttp://ultraimg.com/images/beaZq.png&quot; rel=&quot;nofollow&quot; target=&quot;_NEW&quot;&gt;\nhttp://ultraimg.com/images/beaZq.png&lt;/a&gt; &lt;a href=&quot;\nhttp://ultraimg.com/images/lM38C.png&quot; rel=&quot;nofollow&quot; target=&quot;_NEW&quot;&gt;\nhttp://ultraimg.com/images/lM38C.png&lt;/a&gt; &lt;a href=&quot;\nhttp://ultraimg.com/images/9B5aK.png&quot; rel=&quot;nofollow&quot; target=&quot;_NEW&quot;&gt;\nhttp://ultraimg.com/images/9B5aK.png&lt;/a&gt; &lt;a href=&quot;\nhttp://ultraimg.com/images/rWEh.png&quot; rel=&quot;nofollow&quot; target=&quot;_NEW&quot;&gt;\nhttp://ultraimg.com/images/rWEh.png&lt;/a&gt; &lt;a href=&quot;\nhttp://ultraimg.com/images/MHz20.png&quot; rel=&quot;nofollow&quot; target=&quot;_NEW&quot;&gt;\nhttp://ultraimg.com/images/MHz20.png&lt;/a&gt; &lt;a href=&quot;\nhttp://ultraimg.com/images/jhd52.png&quot; rel=&quot;nofollow&quot; target=&quot;_NEW&quot;&gt;\nhttp://ultraimg.com/images/jhd52.png&lt;/a&gt;\n\n\n----------------------------------------------------------------------------------------------------\n\n\nEncoded using revolutionary 10bit encoding, which enables us to provide you more crispier \nand sharper images at small sizes, just make sure you follow our instructions without a fault.\nRecommend to you to use latest version of VLC player. Install K-Lite Codec Pack or shark007 codecs\nin case of any kind of problem in playback (For non-VLC Media Player users). Alternatively, install\nCore AVC codecs, the fastest decoder that there is coupled with Community Center Codec Pack and play\non Windows Media Player Classic. Check sample to be sure.\nEnjoy!\n\nEncoder Notes:Looking For Early Access To Anything You Can Provide DVDScr, R5, DVDR, BluRay, Direct\nAudio, Music Releases and Seedboxes. We require dedicated servers, so as to do more \nand fast releases of movies.\nIf You Got anything to offer please contact us at &quot;&lt;a class=&quot;__cf_email__&quot; href=&quot;/cdn-cgi/l/email-protection&quot; data-cfemail=&quot;38484a5f78504d4b50165b5755&quot;&gt;[email&amp;#160;protected]&lt;/a&gt;&lt;script cf-hash='f9e31' type=&quot;text/javascript&quot;&gt;\n/* &lt;![CDATA[ */!function(){try{var t=&quot;currentScript&quot;in document?document.currentScript:function(){for(var t=document.getElementsByTagName(&quot;script&quot;),e=t.length;e--;)if(t[e].getAttribute(&quot;cf-hash&quot;))return t[e]}();if(t&amp;&amp;t.previousSibling){var e,r,n,i,c=t.previousSibling,a=c.getAttribute(&quot;data-cfemail&quot;);if(a){for(e=&quot;&quot;,r=parseInt(a.substr(0,2),16),n=2;a.length-n;n+=2)i=parseInt(a.substr(n,2),16)^r,e+=String.fromCharCode(i);e=document.createTextNode(e),c.parentNode.replaceChild(e,c)}}}catch(u){}}();/* ]]&gt; */&lt;/script&gt;&quot;.\nFace book Fan Page:  \nSearch P2PDL on FB and hit like!!!\n\nFor more of our team uploads visit @                                                &lt;a href=&quot;\nhttp://thepiratebay.se/user/vitamin_x&quot; rel=&quot;nofollow&quot; target=&quot;_NEW&quot;&gt;\nhttp://thepiratebay.se/user/vitamin_x&lt;/a&gt;","torrent":{"xt":"urn:btih:cba7507b9f2928558c1abfeb125773457e10333e","amp;dn":"Nasha+2013+DVDRip+x264+Hindi+ESubs+-+ViZNU+%5BP2PDL%5D","amp;tr":["udp%3A%2F%2Ftracker.openbittorrent.com%3A80","udp%3A%2F%2Fopen.demonii.com%3A1337","udp%3A%2F%2Ftracker.coppersurfer.tk%3A6969","udp%3A%2F%2Fexodus.desync.com%3A6969"],"infoHash":"cba7507b9f2928558c1abfeb125773457e10333e","infoHashBuffer":{"type":"Buffer","data":[203,167,80,123,159,41,40,85,140,26,191,235,18,87,115,69,126,16,51,62]},"announce":[],"urlList":[]}}